#!OML:ASF E:\Steps\Project 1\Capture day 1\Session 2\Subject.ASF
:FULLY-SPECIFIED
:DEGREES
665
root 9.83865 21.4532 -9.62164 -153.947 -1.15544 177.244
lowerback -18.669 -1.28217 -1.64213
upperback 1.5045 -1.53639 1.17556
thorax 12.2899 -0.90126 1.79252
lowerneck -2.44773 -2.33458 -1.34347
upperneck 16.3984 -2.47321 1.77159
head 5.37485 -0.835863 0.674939
rclavicle 1.19271e-015 -9.93923e-015
rhumerus -36.4933 -11.5288 -75.3816
rradius 45.9081
rwrist -8.9511
rhand -6.84581 -52.7761
rfingers 7.12502
rthumb 19.0191 278.134
lclavicle 1.19271e-015 -9.93923e-015
lhumerus -32.0639 -4.036 80.8799
lradius 32.8746
lwrist -1.49471
lhand -19.8578 -9.2653
lfingers 7.12502
lthumb 6.47708 20.6157
rfemur -50.3265 1.59618 21.8946
rtibia 39.2296
rfoot -383.323 -11.2108
rtoes -39.215
lfemur -47.3926 -1.36418 -22.7125
ltibia 81.3584
lfoot 2.28689 -4.0853
ltoes -42.3272
666
root 9.84994 21.5 -9.67806 -153.946 -0.983796 177.213
lowerback -18.9155 -1.12916 -1.74749
upperback 1.69209 -1.29477 1.13912
thorax 12.6386 -0.796081 1.88055
lowerneck -3.05743 -2.30604 -1.55823
upperneck 16.5761 -2.46291 1.96683
head 5.5395 -0.834489 0.76625
rclavicle -3.97569e-016 -3.18055e-015
rhumerus -35.9143 -11.9098 -75.3816
rradius 46.0184
rwrist -9.0316
rhand -6.69465 -52.62
rfingers 7.12502
rthumb 19.1645 278.304
lclavicle -3.97569e-016 -3.18055e-015
lhumerus -31.9179 -3.7811 80.7141
lradius 32.7303
lwrist -1.65181
lhand -20.1508 -9.79492
lfingers 7.12502
lthumb 6.19426 20.0945
rfemur -49.5226 1.65136 21.8599
rtibia 38.1306
rfoot -382.96 -10.8886
rtoes -39.4804
lfemur -49.0591 -1.18415 -22.804
ltibia 84.2629
lfoot 2.88753 -17.7415
ltoes -43.8082
667
root 9.86014 21.5448 -9.73287 -154.012 -0.922388 177.341
lowerback -19.057 -1.00546 -1.64629
upperback 1.88377 -1.14627 1.14234
thorax 12.9325 -0.721805 1.87004
lowerneck -3.4773 -2.48082 -1.56499
upperneck 16.5786 -2.75675 2.17105
head 5.6206 -0.972535 0.809339
rclavicle 2.78299e-015 1.98785e-015
rhumerus -35.4088 -12.1492 -75.4838
rradius 46.1934
rwrist -9.32763
rhand -6.59836 -52.4577
rfingers 7.12502
rthumb 19.2571 278.476
lclavicle 2.78299e-015 1.98785e-015
lhumerus -31.6467 -3.48594 80.4973
lradius 32.4131
lwrist -1.54572
lhand -20.4077 -10.1569
lfingers 7.12502
lthumb 5.94624 19.7396
rfemur -48.6192 1.58869 22.106
rtibia 37.0664
rfoot -382.806 -10.4187
rtoes -39.1936
lfemur -50.6967 -0.997676 -22.6947
ltibia 86.7846
lfoot 3.85988 -31.1972
ltoes -43.7361
668
root 9.86957 21.5887 -9.78425 -154.241 -0.851687 177.328
lowerback -18.81 -0.943011 -1.66053
upperback 1.86808 -1.05865 1.11978
thorax 12.7653 -0.679115 1.88052
lowerneck -3.6042 -2.50048 -1.68187
upperneck 16.8844 -2.75502 2.20026
head 5.74031 -0.964278 0.837736
rclavicle -3.37934e-015 1.51076e-014
rhumerus -35.3434 -12.1922 -75.4902
rradius 46.3186
rwrist -9.50173
rhand -6.75052 -52.3013
rfingers 7.12502
rthumb 19.1107 278.618
lclavicle -3.37934e-015 1.51076e-014
lhumerus -31.7725 -3.01438 80.263
lradius 31.9953
lwrist -1.46053
lhand -20.3023 -9.9256
lfingers 7.12502
lthumb 6.04796 19.9681
rfemur -47.6961 1.58766 22.1434
rtibia 36.2595
rfoot -382.687 -10.4682
rtoes -39.3933
lfemur -52.2084 -0.941617 -22.7067
ltibia 88.7314
lfoot 6.53985 -44.6376
ltoes -42.229
669
root 9.8763 21.6275 -9.83794 -154.398 -0.758372 177.184
lowerback -18.69 -0.844926 -1.78197
upperback 1.81823 -0.895198 1.06538
thorax 12.6307 -0.607863 1.93761
lowerneck -3.19035 -2.61987 -1.86319
upperneck 16.7817 -2.91234 2.37843
head 5.64581 -1.0356 0.91892
rclavicle 6.55989e-015 4.37326e-015
rhumerus -35.3879 -12.297 -75.3928
rradius 46.487
rwrist -9.61902
rhand -6.95818 -52.2223
rfingers 7.12502
rthumb 18.911 278.677
lclavicle 6.55989e-015 4.37326e-015
lhumerus -32.0928 -2.63061 80.0953
lradius 31.6593
lwrist -1.59549
lhand -20.2712 -10.0081
lfingers 7.12502
lthumb 6.07804 19.8847
rfemur -46.8772 1.64581 21.9239
rtibia 35.729
rfoot -382.768 -10.1227
rtoes -37.7114
lfemur -53.7947 -0.984376 -22.8748
ltibia 89.8833
lfoot 12.3237 -57.8702
ltoes -40.078
670
root 9.88376 21.663 -9.89062 -154.433 -0.742972 177.107
lowerback -18.8361 -0.807033 -1.87504
upperback 1.78316 -0.819143 1.03291
thorax 12.6728 -0.578607 1.97619
lowerneck -3.03305 -2.47397 -1.57304
upperneck 16.6649 -2.6981 2.12695
head 5.56982 -0.931324 0.806174
rclavicle 5.96354e-016 1.39149e-014
rhumerus -35.3677 -12.443 -75.4124
rradius 46.6255
rwrist -9.52322
rhand -6.85397 -52.2112
rfingers 7.12502
rthumb 19.0113 278.698
lclavicle 5.96354e-016 1.39149e-014
lhumerus -32.5879 -2.13459 79.789
lradius 31.5353
lwrist -1.93097
lhand -20.3657 -10.3426
lfingers 7.12502
lthumb 5.98677 19.5528
rfemur -46.1343 1.53422 21.8601
rtibia 35.1564
rfoot -382.583 -9.46657
rtoes -35.4199
lfemur -55.5599 -1.02003 -22.9742
ltibia 90.0806
lfoot 23.2442 -70.8422
ltoes -39.9813
671
root 9.89302 21.7022 -9.93961 -154.535 -0.75387 177.062
lowerback -18.8346 -0.774147 -1.94065
upperback 1.81866 -0.756226 1.01574
thorax 12.7103 -0.553285 2.0133
lowerneck -3.30585 -2.52836 -1.67279
upperneck 16.961 -2.75019 2.12355
head 5.71185 -0.954103 0.816575
rclavicle -5.96354e-015 -1.59028e-014
rhumerus -35.1029 -12.6617 -75.4707
rradius 46.5927
rwrist -9.32779
rhand -6.54534 -52.7176
rfingers 7.12502
rthumb 19.3081 278.221
lclavicle -5.96354e-015 -1.59028e-014
lhumerus -32.8224 -1.78462 79.5586
lradius 31.3572
lwrist -2.0691
lhand -20.4043 -10.202
lfingers 7.12502
lthumb 5.94945 19.6945
rfemur -45.3993 1.29844 21.9568
rtibia 34.1915
rfoot -382.681 -9.71365
rtoes -37.2212
lfemur -57.3019 -1.03791 -22.9962
ltibia 89.3782
lfoot 65.9811 -81.1381
ltoes -40.4402
672
root 9.90289 21.7423 -9.98745 -154.738 -0.720581 176.943
lowerback -18.5885 -0.725238 -2.06794
upperback 1.77337 -0.658103 0.956222
thorax 12.5103 -0.510875 2.04846
lowerneck -3.16434 -1.44727 -1.92233
upperneck 16.9026 -3.19954 2.59982
head 5.68414 -1.86552 0.912222
rclavicle -4.37326e-015 -1.07344e-014
rhumerus -35.0638 -12.8379 -75.5065
rradius 46.6537
rwrist -9.19355
rhand -6.36883 -53.1631
rfingers 7.12502
rthumb 19.4778 277.792
lclavicle -4.37326e-015 -1.07344e-014
lhumerus -33.1884 -1.69804 79.4194
lradius 31.1857
lwrist -1.91328
lhand -20.301 -9.5989
lfingers 7.12502
lthumb 6.04919 20.2947
rfemur -44.628 1.32018 21.841
rtibia 33.2301
rfoot -382.286 -10.221
rtoes -39.1151
lfemur -58.8789 -1.06366 -23.076
ltibia 87.9417
lfoot 139.26 -76.1999
ltoes -40.216
673
root 9.91418 21.7784 -10.028 -154.909 -0.744398 176.861
lowerback -18.2775 -0.692754 -2.19514
upperback 1.63845 -0.594539 0.947315
thorax 12.1725 -0.485261 2.12877
lowerneck -2.59029 -1.41753 -2.09843
upperneck 16.705 -3.19624 2.7883
head 5.52894 -1.87624 1.00811
rclavicle 5.36719e-015 9.93923e-015
rhumerus -35.2599 -12.7764 -75.4903
rradius 46.8964
rwrist -9.16692
rhand -6.16984 -53.4024
rfingers 7.12502
rthumb 19.6691 277.573
lclavicle 5.36719e-015 9.93923e-015
lhumerus -33.6639 -1.45564 79.2583
lradius 30.9055
lwrist -1.98895
lhand -20.0728 -9.32576
lfingers 7.12502
lthumb 6.26949 20.5615
rfemur -43.8253 1.44607 21.7109
rtibia 32.3713
rfoot -381.913 -10.3483
rtoes -38.9435
lfemur -60.5138 -1.13948 -23.0516
ltibia 86.0975
lfoot 157.709 -63.5525
ltoes -40.1408
674
root 9.92325 21.8111 -10.0691 -154.995 -0.844745 176.864
lowerback -18.1984 -0.691119 -2.22514
upperback 1.7197 -0.585389 0.967835
thorax 12.2196 -0.483693 2.17192
lowerneck -2.74502 -1.4619 -1.94134
upperneck 16.6731 -3.22306 2.62616
head 5.54171 -1.88231 0.928565
rclavicle -4.96962e-015 1.31198e-014
rhumerus -34.9284 -12.6164 -75.6376
rradius 46.8822
rwrist -9.31463
rhand -6.05634 -53.4016
rfingers 7.12502
rthumb 19.7782 277.585
lclavicle -4.96962e-015 1.31198e-014
lhumerus -33.7316 -1.03794 79.0243
lradius 30.6231
lwrist -2.3343
lhand -19.861 -9.21166
lfingers 7.12502
lthumb 6.47402 20.6694
rfemur -43.0945 1.36299 21.797
rtibia 31.6608
rfoot -381.704 -10.3649
rtoes -39.0093
lfemur -62.2687 -1.26192 -22.9103
ltibia 84.0898
lfoot 164.284 -49.9922
ltoes -40.9753
